<?xml version="1.0" encoding="utf-8"?>
<!-- Generator: Adobe Illustrator 15.1.0, SVG Export Plug-In . SVG Version: 6.00 Build 0)  -->
<!DOCTYPE svg PUBLIC "-//W3C//DTD SVG 1.1//EN" "http://www.w3.org/Graphics/SVG/1.1/DTD/svg11.dtd">
<svg version="1.1" xmlns="http://www.w3.org/2000/svg" xmlns:xlink="http://www.w3.org/1999/xlink" x="0px" y="0px" width="600px"
	 height="600px" viewBox="0 0 600 600" enable-background="new 0 0 600 600" xml:space="preserve">
<g id="Layer_1">
	<linearGradient id="SVGID_1_" gradientUnits="userSpaceOnUse" x1="292.9487" y1="543.3047" x2="292.9487" y2="36.7998">
		<stop  offset="0" style="stop-color:#35893A"/>
		<stop  offset="1" style="stop-color:#51C87A"/>
	</linearGradient>
	<path fill="url(#SVGID_1_)" d="M526.33,388.56c12.8-30.28,19.87-63.57,19.87-98.51c0-139.87-113.39-253.25-253.25-253.25
		C153.08,36.8,39.7,150.18,39.7,290.05c0,139.87,113.38,253.25,253.25,253.25c60.71,0,116.42-21.37,160.04-56.98
		c-26.09-21.76-52.46-43.11-81.49-60.82C423.89,416.25,476.87,407.59,526.33,388.56z"/>
	<g transform="translate(0,0)">
		<linearGradient id="SVGID_2_" gradientUnits="userSpaceOnUse" x1="292.7627" y1="543.3047" x2="292.7627" y2="36.7998">
			<stop  offset="0" style="stop-color:#19647E"/>
			<stop  offset="1" style="stop-color:#119DA4"/>
		</linearGradient>
		<path fill="url(#SVGID_2_)" d="M405.79,457.32l-18.27,3.58c0,0,5.5-57.09,8.28-60.26l18.32-13.19l0,0l-3.63,30.49
			c22.25-11.02,47.01-6.95,69.02-18.43c18.33-10.69,36.08-19.64,53.69-29.95c7.51-22.75,11.91-46.95,12.64-72.09
			c-17.49,4.69-0.35,0.25-18.62,5.1c-10.29-3.35-32.13,11.6-33.01,11.6c-1.99,0-16.56-56.15-16.56-56.15l-43.28-22.23h-14.79
			l-1.49,7.15l34.14,32.16l-54,23.42l-40.1-55.58l-5.92,2.63l12.67,41.04l48.43,26.2l-48.43,57.17l1.59,40.5l-35.36,75.95
			l-58.98-7.59l-18.09-100.45l-3.5-37.79l-80.86-4.34l-10.47-68.71l36.53-40.51l61.94-7.15l45.26,24.62l41.75-10.99
			c-1.26-20.77,0.06-14.18-1.26-20.77l-22.23-0.79l-1.19-11.51l-6.75-2.38l-3.18,14.29l-10.72-0.59l-13.5-29.98l-9.53,3.18
			l11.51,25.41l-10.32,3.57l-15.48-23.42l-9.53-1.59l-24.62,3.18l-20.65,26.2l-21.04,1.59l-1.59-38.51l27.39-1.99l2.38-11.51
			l-6.55-6.35l-0.2-4.17l18.3-8.98l13.07-3.33l22.23-7.74l7.14-8.34l3.97,8.34l25.41,3.18l9.93-10.32l6.75-27.79l-7.54-3.18
			l-12.71,19.06l-9.53-11.12l-13.1,16.68l-16.28,2.78l-0.79-11.51l12.7-27l35.73-15.48l49.63-3.57l4.37,15.09
			c0,0-5.56,15.09-6.75,15.48c-0.16,0.05,0.48,1.98,1.65,5.16h35.27L403,91.66l33.33-10.33c-42.2-28.99-92.19-44.52-143.39-44.53
			C153.08,36.8,39.7,150.18,39.7,290.05c0,139.87,113.38,253.25,253.25,253.25c73.45-0.08,139.72-31.47,186-81.68
			c-24.15-3.02-48.32-6.58-72.27-11.76L405.79,457.32z M207.07,94.04l6.95-1.79v0l9.33,22.04l3.77,18.86c0,0-13.1,6.55-14.09,7.34
			c-0.99,0.79-6.95-9.13-6.95-9.13l-2.18-20.25L207.07,94.04z M200.32,117.67L200.32,117.67L200.32,117.67v18.26L189,140.3
			l-2.38-8.73L200.32,117.67L200.32,117.67z M167.56,79.16L167.56,79.16l6.95,1.19c0,0,1.98,9.13,0.4,11.31
			c-1.59,2.19-12.31,8.94-12.31,8.94l-6.95-13.7L167.56,79.16z"/>
	</g>
	<g transform="translate(0,0)">
		
			<linearGradient id="SVGID_3_" gradientUnits="userSpaceOnUse" x1="1.0103" y1="600.3271" x2="1.0103" y2="599.3271" gradientTransform="matrix(560.5807 0 0 -552.0756 -263.5152 331446.2188)">
			<stop  offset="0" style="stop-color:#FFC857"/>
			<stop  offset="1" style="stop-color:#E4572E"/>
		</linearGradient>
		<path fill="url(#SVGID_3_)" d="M252.1,20.14C167.06,21.25,85.17,75.09,47.09,154.98c-66.69,139.95,8.26,304.89,143.34,368.44
			c62.71,29.51,134.38,37,202.22,23.18l11.28,25.6l179-39.88c-0.75-15.26-2.22-34.09-3.99-53.87c-3.93,7.2-9.71,13.53-17.17,18.16
			c-23.05,14.31-53.33,7.19-67.64-15.86c-14.31-23.05-7.22-53.33,15.82-67.64c7.92-4.92,16.73-7.28,25.42-7.36
			c14.39-0.14,28.5,6.06,38.12,17.58c-4.76-44.98-9.41-83.17-9.41-83.17c-68.54,36.55-135.16,55.15-204.46,70.79v-0.44
			c-54.54,14.67-148.16,1.48-183.4-35.41c21.44,47.58,95.75,76.22,174.98,77.16l9.78,22.19c-28.52,11.06-58.96,16.89-89.5,16.77
			l-16.66-21.06l-26.62,16.74c-15.25-3.04-30.07-7.66-44.17-13.73l-11.2-27.17l-27.98,5.46c-8.41-5.82-16.37-12.21-23.88-19.08
			l-0.66-28.27l-30.87-7.62c-4.32-6.19-8.31-12.61-11.94-19.23l10.37-31.57l-27.72-11.1c-2.2-7.96-3.89-16.1-5.05-24.39l16.26-25.27
			l-16.55-25.6c0.07-0.52,0.11-1.05,0.18-1.57c1.02-7.53,2.55-14.93,4.5-22.2l23.66-15.53l-7.73-24.24
			c3.83-7.03,8.1-13.78,12.78-20.21l30.1-6.33l3.62-28.86c6.74-5.34,13.87-10.19,21.32-14.43l26.62,7.95l11.5-23.58
			c11.25-2.96,22.93-4.64,34.9-4.91l24.43,17.87l23.51-10.99c59.4,19.26,103.88,77.31,94.37,142.49
			c-3.4,23.34-14.29,44.92-29.81,61.45c3.55-23.72-12.75-50.6-41.12-64.45c-33.37-16.29-70.72-8.39-83.42,17.61
			c-12.7,26.01,4.06,60.28,37.43,76.58c5.45,2.66,11.01,4.68,16.55,6.08c67.92,22.23,142.24-14.6,172.96-77.42
			c43.29-88.52-3.95-193.52-89.21-234.63C314.12,26.61,285,20.33,256.17,20.14C254.82,20.13,253.45,20.12,252.1,20.14L252.1,20.14z
			 M464.61,408.25l-1.91,43.58l-70.93-12.49L464.61,408.25L464.61,408.25z"/>
	</g>
</g>
<g id="Layer_2">
</g>
</svg>
