<svg style="height: 512px; width: 512px;" xmlns="http://www.w3.org/2000/svg" viewBox="0 0 512 512"><defs><linearGradient id="gradient-1"><stop offset="0%" stop-color="#0081af" stop-opacity="1"></stop><stop offset="100%" stop-color="#2dc7ff" stop-opacity="1"></stop></linearGradient><linearGradient x1="0" x2="0" y1="0" y2="1" id="gradient-2"><stop offset="0%" stop-color="#ffc857" stop-opacity="1"></stop><stop offset="100%" stop-color="#e4572e" stop-opacity="1"></stop></linearGradient><linearGradient x1="0" x2="0" y1="0" y2="1" id="gradient-3"><stop offset="0%" stop-color="#ffc857" stop-opacity="1"></stop><stop offset="100%" stop-color="#e4572e" stop-opacity="1"></stop></linearGradient><linearGradient x1="0" x2="0" y1="0" y2="1" id="gradient-5"><stop offset="0%" stop-color="#ffc857" stop-opacity="1"></stop><stop offset="100%" stop-color="#e4572e" stop-opacity="1"></stop></linearGradient><linearGradient x1="0" x2="0" y1="0" y2="1" id="gradient-6"><stop offset="0%" stop-color="#ffc857" stop-opacity="1"></stop><stop offset="100%" stop-color="#e4572e" stop-opacity="1"></stop></linearGradient></defs><circle cx="256" cy="256" r="224" fill="transparent" fill-opacity="0" stroke="transparent" stroke-opacity="0" stroke-width="32"></circle><g class="" style="touch-action: none;" transform="translate(0,0)"><path d="M170.738 311.468c8.07-42.15 99.697-131.543 138.247-138.247 11.314 11.314 33.94 33.942 56.57 33.942l79.195-79.196c0-22.628-35.103-49.413-56.57-56.57C272.583 32.865 32.865 272.583 71.398 388.182c7.156 21.467 33.94 56.57 56.57 56.57l79.195-79.196c0-22.628-25.11-42.772-36.424-54.086z" fill="url(#gradient-1)" transform="translate(0, 0) scale(1, 1) rotate(-90, 256, 256)"></path></g></svg>